<?xml version="1.0" standalone="no"?>
<!DOCTYPE svg PUBLIC "-//W3C//DTD SVG 20010904//EN"
 "http://www.w3.org/TR/2001/REC-SVG-20010904/DTD/svg10.dtd">
<svg version="1.0" xmlns="http://www.w3.org/2000/svg"
 width="16.000000pt" height="16.000000pt" viewBox="0 0 16.000000 16.000000"
 preserveAspectRatio="xMidYMid meet">
<metadata>
Created by potrace 1.11, written by Peter Selinger 2001-2013
</metadata>
<g transform="translate(0.000000,16.000000) scale(0.006154,-0.006154)"
fill="#000000" stroke="none">
<path d="M50 1692 l0 -107 282 0 c307 0 321 -2 362 -57 48 -67 17 -186 -58
-218 -36 -16 -72 -18 -314 -17 l-272 2 0 -106 0 -107 291 -1 c161 -1 304 -4
318 -8 95 -23 138 -129 88 -218 -35 -62 -77 -85 -156 -85 -36 -1 -173 -1 -303
-1 l-238 0 0 -108 0 -107 328 2 c212 1 344 6 377 13 109 26 182 86 227 188 32
71 32 220 0 283 -38 76 -102 136 -167 157 l-30 10 38 18 c79 37 135 139 135
242 -1 158 -65 263 -189 309 -37 14 -95 17 -381 20 l-338 2 0 -106z"/>
<path d="M960 1794 c0 -5 51 -147 61 -169 4 -11 31 -81 58 -155 27 -74 100
-270 161 -435 61 -165 113 -304 114 -310 9 -42 63 -165 73 -169 8 -3 22 15 37
47 13 29 54 114 90 190 36 76 66 139 66 141 0 2 29 66 66 142 36 77 71 152 79
169 l14 30 24 -55 c14 -30 52 -113 86 -183 34 -71 61 -130 61 -132 0 -1 28
-63 63 -136 35 -74 69 -149 76 -167 8 -18 21 -37 31 -42 15 -8 38 46 190 453
95 254 182 487 192 517 11 30 24 64 29 75 11 25 37 96 54 152 l14 42 -127 -2
-127 -2 -32 -90 c-18 -49 -46 -126 -62 -170 -123 -344 -146 -405 -152 -405 -4
0 -16 21 -27 48 -11 26 -38 85 -60 132 -22 47 -55 119 -74 160 -131 284 -153
330 -159 330 -9 0 -23 -29 -213 -440 -92 -201 -115 -239 -123 -205 -1 6 -53
152 -115 325 l-113 315 -128 1 c-70 1 -127 0 -127 -2z"/>
</g>
</svg>
